<?xml version="1.0"?>
<svg xmlns="http://www.w3.org/2000/svg" xmlns:xlink="http://www.w3.org/1999/xlink" xmlns:svgjs="http://svgjs.com/svgjs" version="1.1" width="512" height="512" x="0" y="0" viewBox="0 0 61 60" style="enable-background:new 0 0 512 512" xml:space="preserve" class=""><g><g xmlns="http://www.w3.org/2000/svg" id="100---Sale-House" transform="translate(0 -1)"><path id="Shape" d="m56 51v-19c2.1029911.00244 3.9827337-1.3112862 4.7032131-3.2870106.7204794-1.9757245.1276806-4.1911021-1.4832131-5.5429894-25.72-21.38-25.14-22.17-28.13-22.17-1.2072213-.03681768-2.3856605.37260983-3.31 1.15l-25 21c-1.62716972 1.3482422-2.23106293 3.5738559-1.5085454 5.5596572.72251754 1.9858013 2.61542476 3.3029746 4.7285454 3.2903428v19c-2.84077036.259301-5.01180974 2.6474443-5 5.5v3.5c0 .5522847.44771525 1 1 1h58c.5522847 0 1-.4477153 1-1v-3.5c.0118097-2.8525557-2.1592296-5.240699-5-5.5zm-52.3-22.07c-.51250271-.6097288-.76149351-1.3982389-.69208743-2.1917192.06940608-.7934804.45151099-1.5267882 1.06208743-2.0382808l25-21c.5369263-.46005867 1.2229888-.70888961 1.93-.7.15 0 .67-.21 2 .71l25 21c.6105764.5114926.9926813 1.2448004 1.0620874 2.0382808.0694061.7934803-.1795847 1.5819904-.6920874 2.1917192-1.0885565 1.2259988-2.9451255 1.3883937-4.23.37l-22.5-18.85c-.3707811-.3088335-.9092189-.3088335-1.28 0l-22.43 18.84c-1.28487454 1.0183937-3.14144348.8559988-4.23-.37zm15.3 30.07h-16v-2.5c.00000003-1.9329966 1.5670034-3.4999999 3.5-3.4999999s3.49999997 1.5670033 3.5 3.4999999c0 .5522847.4477153 1 1 1s1-.4477153 1-1v-3c0-1.9329966 1.5670034-3.4999999 3.5-3.4999999s3.5 1.5670033 3.5 3.4999999zm22-5.5v5.5h-20v-5.5c-.0013437-2.8146743-2.1275004-5.174115-4.9268502-5.4674293-2.7993499-.2933142-5.3684008 1.5741655-5.9531498 4.3274293-.61476568-.5282833-1.33869949-.9141537-2.12-1.13v-19.67c1-.44-.85 1 23-19 23.85 20 22 18.59 23 19v19.67c-.7760551.2163444-1.495942.5984645-2.11 1.12-.6051985-2.7380163-3.1701879-4.5848106-5.9587861-4.2903305-2.7885981.29448-4.911264 2.6362976-4.9312139 5.4403305zm18 5.5h-16v-5.5c-.0303757-1.9329966 1.5120034-3.5246243 3.445-3.555s3.5246243 1.5120034 3.555 3.445v3.11c0 .5522847.4477153 1 1 1s1-.4477153 1-1c.0000001-1.9329966 1.5670034-3.4999999 3.5-3.4999999s3.4999999 1.5670033 3.5 3.4999999z" fill="#ffffff" data-original="#000000" style="" class=""/><path id="Shape" d="m49 42v-10c0-2.209139-1.790861-4-4-4h-28c-2.209139 0-4 1.790861-4 4v10c0 2.209139 1.790861 4 4 4h28c2.209139 0 4-1.790861 4-4zm-2 0c0 1.1045695-.8954305 2-2 2h-28c-1.1045695 0-2-.8954305-2-2v-10c0-1.1045695.8954305-2 2-2h28c1.1045695 0 2 .8954305 2 2z" fill="#ffffff" data-original="#000000" style="" class=""/><path id="Shape" d="m19.5 34c.8 0 1.5.47 1.5 1 0 .5522847.4477153 1 1 1 1.95 0 1-4-2.5-4-1.7893339-.1210974-3.3460099 1.2131963-3.5 3 .1539901 1.7868037 1.7106661 3.1210974 3.5 3 .8 0 1.5.47 1.5 1s-.7 1-1.5 1-1.5-.47-1.5-1c0-.5522847-.4477153-1-1-1-1.95 0-1 4 2.5 4 1.7893339.1210974 3.3460099-1.2131963 3.5-3-.1539901-1.7868037-1.7106661-3.1210974-3.5-3-.8 0-1.5-.47-1.5-1s.7-1 1.5-1z" fill="#ffffff" data-original="#000000" style="" class=""/><path id="Shape" d="m38 40h-3v-7c0-.5522847-.4477153-1-1-1s-1 .4477153-1 1v8c0 .5522847.4477153 1 1 1h4c.5522847 0 1-.4477153 1-1s-.4477153-1-1-1z" fill="#ffffff" data-original="#000000" style="" class=""/><path id="Shape" d="m45 34c.5522847 0 1-.4477153 1-1s-.4477153-1-1-1h-4c-.5522847 0-1 .4477153-1 1v8c0 .5522847.4477153 1 1 1h4c.5522847 0 1-.4477153 1-1s-.4477153-1-1-1h-3v-2h2c.5522847 0 1-.4477153 1-1s-.4477153-1-1-1h-2v-2z" fill="#ffffff" data-original="#000000" style="" class=""/><path id="Shape" d="m28.94 32.65c-.1435417-.3954845-.5192718-.6588256-.94-.6588256s-.7964583.2633411-.94.6588256l-3 8c-.1932996.5191477.0708524 1.0967003.59 1.2899999.5191477.1932997 1.0967003-.0708523 1.29-.5899999l.5-1.35h3.12l.5 1.35c.1932997.5191476.7708523.7832996 1.29.59.5191476-.1932997.7832996-.7708523.59-1.29zm-1.75 5.35.81-2.15.81 2.15z" fill="#ffffff" data-original="#000000" style="" class=""/></g></g></svg>
