<svg xmlns="http://www.w3.org/2000/svg" width="36.04" height="35.698" viewBox="0 0 36.04 35.698">
  <path id="get_in_touch" data-name="get in touch" d="M13463.042,2664.2a8.5,8.5,0,1,1,8.5,8.5A8.509,8.509,0,0,1,13463.042,2664.2Zm5.7.72h2.437v2.521h1.735v-2.521h2.436v-1.678h-2.436v-2.52h-1.735v2.52h-2.437Zm-8.9,4.391a27.243,27.243,0,0,1-8.018-1.062,10.772,10.772,0,0,1-2.527-1.062v-2.162a7.1,7.1,0,0,0,4.879,2.28,5.348,5.348,0,0,0,2.205-.433,10.4,10.4,0,0,0,1.895-1.066l.058-.037.055-.037a3.369,3.369,0,0,0,.98-4.682l-1.965-3.031a3.444,3.444,0,0,0-2.872-1.573,3.308,3.308,0,0,0-1.889.592l-.081.037-1.336-2.087a8.551,8.551,0,0,1,6.57-3.109h4.723a8.383,8.383,0,0,1,5.906,2.429,11,11,0,0,0-6.391,14.963c-.545.027-1.082.041-1.6.041Zm-8.961-5.6a24.911,24.911,0,0,1-3.671-4.709,20.42,20.42,0,0,1-3.048-6.12,3.962,3.962,0,0,1,1.079-4.114,11.556,11.556,0,0,1,1.576-1.181,1.455,1.455,0,0,1,2.006.433l1.97,3.031a1.461,1.461,0,0,1-.434,2.006l-.9.551a1.034,1.034,0,0,0-.419.68,1.206,1.206,0,0,0,.183.934l2.28,3.542a1.275,1.275,0,0,0,1.042.558,1.2,1.2,0,0,0,.534-.125l.825-.552a1.356,1.356,0,0,1,.788-.264,1.5,1.5,0,0,1,1.218.7l1.966,3.031a1.449,1.449,0,0,1-.43,2.006,9.829,9.829,0,0,1-1.654.944,3.73,3.73,0,0,1-1.468.318A5.141,5.141,0,0,1,13450.88,2663.708Zm2.628-20.1a6.611,6.611,0,1,1,6.607,6.61A6.618,6.618,0,0,1,13453.508,2643.613Z" transform="translate(-13444.001 -2636.999)" fill="#fff"/>
</svg>
