<svg xmlns="http://www.w3.org/2000/svg" xmlns:xlink="http://www.w3.org/1999/xlink" width="26.56" height="27.706" viewBox="0 0 26.56 27.706">
  <defs>
    <linearGradient id="linear-gradient" x1="0.5" x2="0.5" y2="1" gradientUnits="objectBoundingBox">
      <stop offset="0" stop-color="#7d3daf"/>
      <stop offset="1" stop-color="#5b00a2"/>
    </linearGradient>
  </defs>
  <path id="Union_21" data-name="Union 21" d="M13465.033,2664.705c-.526-.162-1.027-.27-1.494-.465a33.917,33.917,0,0,1-12.79-8.641,33.523,33.523,0,0,1-4.892-7.568c-.63-1.29-1.159-2.631-1.7-3.963-.492-1.214.232-2.47,1-3.385a7.872,7.872,0,0,1,2.634-2,1.681,1.681,0,0,1,2.116.507,27.577,27.577,0,0,1,3.271,4.63,2.22,2.22,0,0,1-.609,2.985c-.248.17-.476.37-.7.562a2.292,2.292,0,0,0-.531.566,1.556,1.556,0,0,0-.1,1.363,12.286,12.286,0,0,0,6.85,7.667,3.468,3.468,0,0,0,1.757.43c1.075-.127,1.42-1.317,2.173-1.939a2.029,2.029,0,0,1,2.465-.108c.793.507,1.562,1.05,2.325,1.6a26.876,26.876,0,0,1,2.185,1.682,1.767,1.767,0,0,1,.519,2.171,7.316,7.316,0,0,1-3.117,3.473,7.54,7.54,0,0,1-1.351.434Zm4.04-13.69c-.064-.908-.11-1.821-.233-2.722a11.355,11.355,0,0,0-9.087-9.533c-.7-.127-1.426-.16-2.141-.236-.45-.049-1.043-.076-1.142-.643a.776.776,0,0,1,.761-.878c.12-.007.243,0,.364,0h0c4.2.119,2.758.079,1.356.039l-1.245-.035a12.863,12.863,0,0,1,12.5,10.722c.189,1.075.258,2.175.342,3.267a.765.765,0,0,1-.712.9h-.013C13469.331,2651.9,13469.107,2651.469,13469.073,2651.015Zm-3.291-.919a1.938,1.938,0,0,1-.075-.617,7.814,7.814,0,0,0-.968-3.879,7.159,7.159,0,0,0-3-2.84,8.552,8.552,0,0,0-2.387-.741c-.36-.06-.724-.1-1.086-.148a.693.693,0,0,1-.651-.78.683.683,0,0,1,.758-.678,9.827,9.827,0,0,1,4.136,1.09,8.454,8.454,0,0,1,4.554,6.572c.021.134.052.267.062.4.025.332.041.664.065,1.1a2.856,2.856,0,0,1-.061.444.718.718,0,0,1-.708.521A.657.657,0,0,1,13465.782,2650.1Zm-2.648-.674h.024a.773.773,0,0,1-.757-.773,8.079,8.079,0,0,0-.148-1.019,2.861,2.861,0,0,0-1.049-1.661,2.693,2.693,0,0,0-.852-.416c-.388-.114-.789-.083-1.176-.178a.731.731,0,0,1-.588-.846.76.76,0,0,1,.8-.617,4.364,4.364,0,0,1,4.448,4.371,2.026,2.026,0,0,1-.008.62.634.634,0,0,1-.518.517s-.009,0-.047.005l-.164,0C13463.053,2649.425,13463.083,2649.424,13463.134,2649.421Z" transform="translate(-13443.997 -2636.999)" fill="url(#linear-gradient)"/>
</svg>
